<?xml version="1.0" standalone="no"?>
<!DOCTYPE svg PUBLIC "-//W3C//DTD SVG 20010904//EN"
 "http://www.w3.org/TR/2001/REC-SVG-20010904/DTD/svg10.dtd">
<svg version="1.0" xmlns="http://www.w3.org/2000/svg"
 width="50.000000pt" height="50.000000pt" viewBox="0 0 50.000000 50.000000"
 preserveAspectRatio="xMidYMid meet">
<metadata>
Created by potrace 1.16, written by Peter Selinger 2001-2019
</metadata>
<g transform="translate(0.000000,50.000000) scale(0.100000,-0.100000)"
fill="#000000" stroke="none">
<path d="M0 250 l0 -250 245 0 245 0 0 250 0 250 -245 0 -245 0 0 -250z m360
65 c0 -10 10 -15 30 -15 17 0 30 -4 30 -10 0 -5 -13 -10 -30 -10 -25 0 -30 -4
-30 -25 0 -16 -6 -25 -15 -25 -8 0 -15 -7 -15 -15 0 -22 -12 -18 -37 13 l-22
27 -1 -27 c0 -27 -2 -28 -55 -28 -37 0 -55 4 -55 13 0 7 -14 12 -35 12 -32 0
-35 -3 -35 -27 0 -16 -4 -28 -10 -28 -13 0 -13 97 0 105 6 3 10 -1 10 -9 0
-10 9 -16 25 -16 16 0 25 6 25 15 0 8 -9 15 -20 15 -11 0 -20 5 -20 10 0 6 36
10 88 10 85 0 88 -1 104 -27 17 -27 17 -27 18 -5 0 21 27 59 43 61 4 1 7 -6 7
-14z"/>
</g>
</svg>
